# xmcd
#
# Track frame offsets: 
#        150
#        16479
#        35103
#        47766
#        65736
#        77346
#        96601
#        110169
#        126899
#        143030
#        159347
#        172690
#        186645
#        200073
#        213652
#        226882
#        237231
#        248805
#        262598
#        275413
#        289897
#
# Disc length: 4068 seconds
#
# Revision: 0
# Processed by: cddbd v1.5.2PL0 Copyright (c) Steve Scherf et al.
# Submitted via: ExactAudioCopy v0.95b4
#
DISCID=390fe215
DTITLE=Steve Young - Seven Bridges Road (Re-Issue)
DYEAR=2007
DGENRE=Country
TTITLE0=Seven Bridges Road ('81 Re-recording)
TTITLE1=Montgomery In The Rain
TTITLE2=Ragtime Blue Guitar
TTITLE3=Long Way To Hollywood
TTITLE4=Down In The Flood
TTITLE5=Ballad of William Sycamore
TTITLE6=My Oklahoma
TTITLE7=Wild Goose
TTITLE8=Days Of '49
TTITLE9=Lonesome, On'ry and Mean
TTITLE10=I Begin To See Design
TTITLE11=One Car Funeral Procession
TTITLE12=Many Rivers
TTITLE13=Come Sit By My Side
TTITLE14=True Note
TTITLE15=I Can't Hold Myself In Line
TTITLE16=Crash on the Levy
TTITLE17=The White Trash Song (L.A. Version)
TTITLE18=The White Trash Song (Nashville Version)
TTITLE19=The White Trash Song (N.M. Version)
TTITLE20=Seven Bridges Road (Original Recording)
EXTD=
EXTT0=
EXTT1=
EXTT2=
EXTT3=
EXTT4=
EXTT5=
EXTT6=
EXTT7=
EXTT8=
EXTT9=
EXTT10=
EXTT11=
EXTT12=
EXTT13=
EXTT14=
EXTT15=
EXTT16=
EXTT17=
EXTT18=
EXTT19=
EXTT20=
PLAYORDER=
